<svg height="170" viewBox="0 0 784 170" width="784" xmlns="http://www.w3.org/2000/svg" xmlns:xlink="http://www.w3.org/1999/xlink"><linearGradient id="a" x1="-23.258144%" x2="129.601645%" y1="55.82673%" y2="50%"><stop offset="0" stop-color="#9747ff"/><stop offset="1" stop-color="#47bfff"/></linearGradient><g fill="none" fill-rule="evenodd" transform="translate(-474 -200)"><g fill="#fff" fill-rule="nonzero" transform="translate(731.470167 233.332622)"><path d="m0 84.9507188v-74.2h31.1126563c5.4623125 0 10.4426562.9034843 14.9410312 2.7104531 4.498375 1.8069687 8.3886302 4.3611823 11.6707656 7.6626406s5.8068125 7.2135208 7.5740313 11.7361875c1.7672187 4.5226667 2.6508281 9.5195729 2.6508281 14.9907188 0 5.4313958-.8836094 10.4260937-2.6508281 14.9840937-1.7672188 4.558-4.2844427 8.48-7.5516719 11.766s-7.1574844 5.8324844-11.6707656 7.6394531c-4.5132813 1.8069688-9.5010781 2.7104532-14.9633906 2.7104532zm18.02-12.2926875-2.3866562-3.5990313h14.9493125c2.9337708 0 5.5730052-.5095729 7.9177031-1.5287187 2.3446979-1.0191459 4.3515208-2.4490417 6.0204687-4.2896875 1.6689479-1.8406459 2.9522657-4.0718907 3.8499532-6.6937344.8976875-2.6218438 1.3465312-5.5205573 1.3465312-8.6961406 0-3.1755834-.4488437-6.0668438-1.3465312-8.6737813s-2.1887344-4.8381823-3.8731407-6.6937344c-1.6844062-1.8555521-3.6912291-3.292901-6.0204687-4.3120468-2.3292396-1.0191459-4.9607448-1.5287188-7.8945156-1.5287188h-15.2673125l2.7046562-3.3870312z"/><path d="m98.8610034 86.072c-4.1605 0-7.7172969-.8985156-10.6703906-2.6955469-2.9530938-1.7970312-5.2144271-4.3865781-6.784-7.7686406s-2.3543594-7.4509167-2.3543594-12.2065625v-34.708375h17.0030625v32.4095c0 2.2767917.3704479 4.2237135 1.1113438 5.8407656.7408958 1.6170521 1.8091771 2.8586875 3.2048433 3.7249063 1.395667.8662187 3.086146 1.2993281 5.071438 1.2993281 1.480687 0 2.835776-.2343594 4.065266-.7030781 1.229489-.4687188 2.290317-1.1414323 3.182484-2.0181406.892167-.8767084 1.59-1.9093803 2.0935-3.0980157s.75525-2.4680885.75525-3.8383593v-33.6169063h17.004719v56.2578438h-15.969563l-.730406-11.5390938 3.125344-1.272c-.807146 2.6555208-2.197568 5.0330677-4.171266 7.1326406s-4.338547 3.7577552-7.094547 4.9745469-5.703573 1.8251875-8.8427186 1.8251875z"/><path d="m181.105394 86.072c-2.524125 0-4.959641-.3480885-7.306547-1.0442656s-4.451448-1.6474167-6.313625-2.8537188-3.416568-2.5942396-4.663172-4.1638125-2.061479-3.2277552-2.444625-4.9745468l3.668594-1.17925-.973875 12.9585h-15.785719v-78.30418755h17.062688v35.57128125l-3.459906-1.25875c.394187-1.7876458 1.201885-3.4817135 2.423093-5.0822031 1.221209-1.6004896 2.737782-3.0190677 4.549719-4.2557344 1.811938-1.2366667 3.81324-2.2055729 6.003906-2.9067187 2.190667-.7011459 4.457521-1.0517188 6.800563-1.0517188 4.894771 0 9.234974 1.2568177 13.020609 3.7704531 3.785636 2.5136354 6.768542 5.9738177 8.948719 10.3805469s3.270266 9.4422813 3.270266 15.1066563c0 5.704125-1.072422 10.7570677-3.217266 15.1588281s-5.089656 7.8569739-8.834438 10.3656406c-3.744781 2.5086667-7.994442 3.763-12.748984 3.763zm-4.4785-14.2851562c2.560563 0 4.788219-.6274428 6.682969-1.8823282s3.371297-2.9989166 4.42964-5.2320937c1.058344-2.2331771 1.587516-4.862474 1.587516-7.8878906 0-2.9956042-.521719-5.6202084-1.565156-7.8738125-1.043438-2.2536042-2.512531-3.9901823-4.407281-5.2097344s-4.137313-1.8293281-6.727688-1.8293281c-2.591479 0-4.844807.609776-6.759984 1.8293281s-3.401938 2.9561302-4.460282 5.2097344c-1.058343 2.2536041-1.587515 4.8782083-1.587515 7.8738125 0 3.0254166.529172 5.6547135 1.587515 7.8878906 1.058344 2.2331771 2.545105 3.9772083 4.460282 5.2320937s4.168505 1.8823282 6.759984 1.8823282z"/><path d="m218.430408 84.9507188v-74.2h32.035188c4.636396 0 8.790271 1.0577916 12.461625 3.173375 3.671354 2.1155833 6.577521 5.0060156 8.7185 8.6712968 2.140979 3.6652813 3.211469 7.8210886 3.211469 12.4674219 0 4.7666875-1.07049 9.0436771-3.211469 12.8309688-2.140979 3.7872916-5.047146 6.784276-8.7185 8.9909531s-7.825229 3.3100156-12.461625 3.3100156h-14.015188v24.7559688zm17.776532-40.6493438h11.734531c1.583375 0 3.010234-.3853542 4.280578-1.1560625s2.281208-1.8238073 3.032594-3.1592969c.751385-1.3354896 1.127078-2.895401 1.127078-4.6797343 0-1.7854375-.375693-3.3180209-1.127078-4.59775-.751386-1.2797292-1.76225-2.2773438-3.032594-2.9928438s-2.697203-1.07325-4.280578-1.07325h-11.734531z"/><path d="m282.434142 84.9507188v-56.2578438h16.135187l.730406 18.2800313-3.189937-3.5095938c.857937-3.0099583 2.25388-5.7217917 4.187828-8.1355s4.221229-4.3172917 6.861844-5.71075c2.640614-1.3934583 5.430567-2.0901875 8.369859-2.0901875 1.242188 0 2.420886.0957865 3.536094.2873594s2.112823.4286927 2.992844.7113594l-4.627563 18.74875c-.766292-.4350417-1.803932-.8267448-3.112922-1.1751094-1.308989-.3483646-2.681192-.5225469-4.116609-.5225469-1.542521 0-2.976557.2694167-4.30211.80825-1.325552.5388333-2.459531 1.3098177-3.401937 2.3129531s-1.680542 2.1776927-2.214406 3.5236719c-.533865 1.3459792-.800797 2.8608958-.800797 4.54475v28.1844063z"/><path d="m331.178055 84.9507187v-56.2578437h17.003063v56.2578437zm8.465094-67.3977812c-3.184417 0-5.666031-.7629792-7.444844-2.2889375-1.778812-1.5259583-2.668219-3.6884688-2.668219-6.48753125 0-2.577125.907073-4.68415104 2.721219-6.32107813 1.814146-1.63692708 4.278094-2.45539062 7.391844-2.45539062 3.183312 0 5.664651.76297917 7.444016 2.2889375 1.779364 1.52595833 2.669046 3.68846875 2.669046 6.48753125 0 2.57602085-.907349 4.68277085-2.722046 6.32024995-1.814698 1.6374792-4.27837 2.4562188-7.391016 2.4562188z"/><path d="m363.587436 84.9507188v-56.2578438h16.135188l.486937 10.1677188-2.257469.0546562c.850209-1.8373333 1.933948-3.451901 3.251219-4.8437031s2.805964-2.5688438 4.466078-3.531125c1.660115-.9622813 3.400833-1.6902031 5.222156-2.1837656s3.624151-.7403438 5.408485-.7403438c2.774771 0 5.302484.4184792 7.58314 1.2554375 2.280657.8369583 4.259323 2.1937031 5.936 4.0702344 1.676677 1.8765312 3.010235 4.4047969 4.000672 7.5847969l-2.608593-.2418125.803281-1.6198125c.939646-1.7467917 2.128833-3.2937292 3.567562-4.6408125 1.438729-1.3470834 3.041427-2.5048021 4.808094-3.4731563s3.598755-1.6995885 5.496266-2.1937031c1.89751-.4941146 3.739536-.7411719 5.526078-.7411719 4.453104 0 8.171661.8684271 11.155672 2.6052813 2.98401 1.7368541 5.22602 4.326401 6.726031 7.7686406 1.50001 3.4422396 2.250016 7.6615364 2.250016 12.6578906v34.3025938h-17.049438v-32.9974688c0-2.2469792-.314964-4.1036354-.944891-5.5699687-.629927-1.4663334-1.56488-2.5724323-2.804859-3.3182969s-2.786917-1.1187969-4.640812-1.1187969c-1.45198 0-2.800167.2343594-4.044563.7030781-1.244396.4687188-2.309917 1.1414323-3.196562 2.0181407-.886646.8767083-1.581719 1.8768072-2.085219 3.0002968s-.75525 2.3753386-.75525 3.7555469v33.5274688h-17.049438v-33.0869063c0-2.126625-.322416-3.9231042-.96725-5.3894375-.644833-1.4663333-1.587239-2.5876146-2.827218-3.3638437-1.23998-.7762292-2.742198-1.1643438-4.506657-1.1643438-1.450875 0-2.791057.2343594-4.020547.7030781-1.229489.4687188-2.287557 1.1337032-3.174203 1.9949532s-1.581995 1.8536197-2.086047 2.9771093-.756078 2.3609844-.756078 3.7124844v33.6169063z"/><path d="m489.107348 86.0107188c-6.210937 0-11.616109-1.2493646-16.215515-3.7480938-4.599407-2.4987292-8.163381-5.9188854-10.691922-10.2604687-2.528542-4.3415834-3.792813-9.3291042-3.792813-14.9625625 0-4.3007292.706667-8.2530938 2.12-11.8570938s3.394485-6.731 5.943453-9.381c2.548969-2.65 5.572453-4.6993333 9.070453-6.148s7.316761-2.173 11.456282-2.173c3.928625 0 7.538698.7094271 10.830218 2.1282813 3.291521 1.4188541 6.136407 3.4005572 8.534657 5.9451093s4.236135 5.5511979 5.513656 9.0199375 1.860521 7.247474 1.749 11.3362032l-.106 4.5430937h-44.866156l-2.438-9.4836875h33.487718l-1.833468 1.9841875v-2.1779687c-.089438-1.7644584-.612813-3.332099-1.570125-4.7029219-.957313-1.3708229-2.217167-2.4440729-3.779563-3.21975s-3.321885-1.1635156-5.278469-1.1635156c-2.802375 0-5.165843.5518072-7.090406 1.6554218-1.924562 1.1036146-3.385927 2.696099-4.384094 4.7774532-.998166 2.0813541-1.49725 4.6236979-1.49725 7.6270312 0 3.1159583.660568 5.8311042 1.981704 8.1454375 1.321135 2.3143333 3.232447 4.1069479 5.733937 5.3778438 2.50149 1.2708958 5.492953 1.9063437 8.974391 1.9063437 2.39052 0 4.525979-.3478125 6.406375-1.0434375 1.880395-.695625 3.894395-1.9002708 6.042-3.6139375l8.006312 11.2674688c-2.222687 1.8991666-4.573458 3.4441718-7.052312 4.6350156-2.478855 1.1908437-4.997459 2.0863229-7.555813 2.6864375s-5.124437.9001719-7.69825.9001719z"/></g><path d="m680.184315 216h10v134h-10z" fill="#fff"/><path d="m97.0425321 65.26.0008669 32.6305253h-16.3188669v-65.2603502c0-18.0211481 14.6124112-32.6301751 32.6377339-32.6301751 18.025323 0 32.637734 14.609027 32.637734 32.6301751 0 17.8409366-14.321624 32.3376533-32.098009 32.6258036l-.539725.0043715zm16.3197339-48.9449124c-9.012661 0-16.318867 7.3045135-16.318867 16.3150875l-.0008669 16.3148249 16.3197339.0002627c9.012661 0 16.318867-7.3045136 16.318867-16.3150876s-7.306206-16.3150875-16.318867-16.3150875zm-64.4047981 32.4249124-.0008669-32.6305253h16.3188669v65.2603502c0 18.0211481-14.6124112 32.6301751-32.6377339 32.6301751-18.0253228 0-32.637734-14.609027-32.637734-32.6301751 0-17.8409366 14.3216242-32.3376533 32.0980094-32.6258036l.5397246-.0043715zm-16.3197339 48.9449124c9.0126613 0 16.318867-7.3045135 16.318867-16.3150875l.0008669-16.3148249-16.3197339-.0002627c-9.0126614 0-16.318867 7.3045136-16.318867 16.3150876s7.3062056 16.3150875 16.318867 16.3150875z" fill="url(#a)" transform="matrix(.8571673 .51503807 -.51503807 .8571673 531.783957 198.543684)"/></g></svg>