<svg xmlns="http://www.w3.org/2000/svg" version="1.1" viewBox="-5.0 -10.0 110.0 135.0">
	<path d="m43.336 56.262c0.43359-0.28906 0.69531-0.77734 0.69531-1.3008 0-0.51953-0.26172-1.0078-0.69531-1.2969l-9.4961-6.332c-0.48047-0.32031-1.0977-0.34766-1.6055-0.078125-0.50781 0.27344-0.82422 0.80078-0.82422 1.3789v12.66c0 0.57812 0.31641 1.1055 0.82422 1.3789 0.50781 0.26953 1.125 0.24219 1.6055-0.078125zm-3.6836-1.3008-5.1172 3.4141v-6.8242z" fill-rule="evenodd"/>
	<path d="m89.195 43.465h-2.7266c-0.86328 0-1.5625 0.69922-1.5625 1.5625 0 0.85938 0.69922 1.5625 1.5625 1.5625h2.7266c0.85938 0 1.5625-0.70312 1.5625-1.5625 0-0.86328-0.70312-1.5625-1.5625-1.5625z" fill-rule="evenodd"/>
	<path d="m87.344 32.738c0.76562-0.76562 2.0078-0.76562 2.7734 0 0.60937 0.60938 1.6016 0.60938 2.2109 0s0.60938-1.6016 0-2.2109c-1.9844-1.9844-5.2109-1.9844-7.1953 0-0.60937 0.60938-0.60937 1.6016 0 2.2109 0.60938 0.60938 1.6016 0.60938 2.2109 0z" fill-rule="evenodd"/>
	<path d="m83.254 28.648c3.0234-3.0273 7.9258-3.0273 10.949 0 0.60938 0.60547 1.6055 0.60547 2.2109 0 0.60938-0.60938 0.60938-1.6055 0-2.2148-4.2383-4.2383-11.133-4.2383-15.371 0-0.60938 0.60938-0.60938 1.6055 0 2.2148 0.60547 0.60547 1.6016 0.60547 2.2109 0z" fill-rule="evenodd"/>
	<path d="m40.703 37.57h-17.113c-1.2852 0-2.5156 0.51563-3.4258 1.4219-0.90625 0.90625-1.418 2.1406-1.418 3.4219v10.371c-0.76953-0.40625-1.5898-0.72656-2.4453-0.95703-3.0625-0.82031-6.3242-0.39062-9.0742 1.1953l-0.125 0.074218c-3.8008 2.1953-5.1055 7.0586-2.9102 10.863l4.0039 6.9375c2.1484 3.7148 6.8398 5.043 10.598 3.0547 0.39062 3.2305 3.1406 5.7344 6.4766 5.7344h11.215v6.3203c0 0.86328 0.69531 1.5625 1.5625 1.5625h49.109c0.86328 0 1.5625-0.69922 1.5625-1.5625v-15.43c0-2.625-0.45703-5.207-1.3281-7.6328h4.1328c2.5859 0 4.6875-2.0938 4.6875-4.6875v-15.559c0-1.2422-0.49609-2.4336-1.375-3.3164-0.87891-0.875-2.0703-1.3711-3.3125-1.3711h-14.047c0.67188-1.957 1.0312-4.0547 1.0312-6.2383 0-10.676-8.668-19.344-19.344-19.344-10.676 0-19.344 8.668-19.344 19.344 0 2.0195 0.30859 3.9688 0.88281 5.7969zm43.332 25.375h-0.65234v0.76563c0 1.2461-0.49609 2.4375-1.375 3.3164-0.87891 0.87891-2.0742 1.3711-3.3125 1.3711h-0.53125v7.7812h0.29688c2.5859 0 4.6875 2.0977 4.6875 4.6875v3.5781h2.4453v-13.867c0-2.6484-0.53906-5.2422-1.5586-7.6328zm-29.715-12.438v13.707c0 0.054687-0.003906 0.10547-0.003906 0.16016l0.003906 7.5c0 2.0703-0.82812 4.0586-2.293 5.5234-1.4609 1.4688-3.4492 2.2891-5.5195 2.2891h-6.8984v4.7578h24.523v-3.5781c0-2.5898 2.0977-4.6875 4.6875-4.6875h0.29688v-7.7812h-0.53125c-1.2461 0-2.4375-0.49219-3.3125-1.3711-0.88281-0.87891-1.375-2.0703-1.375-3.3164v-0.76563h-0.76563c-1.2422 0-2.4375-0.49219-3.3125-1.3711-0.87891-0.87891-1.375-2.0703-1.375-3.3164v-7.1523c-1.4219-0.050781-2.8008-0.25781-4.125-0.59766zm25.703 30.359v3.4922h-12.766v-3.4922c0-0.86328 0.69922-1.5625 1.5625-1.5625h9.6406c0.85937 0 1.5625 0.69922 1.5625 1.5625zm-28.828-11.656c-0.73437 0.35547-1.5547 0.55078-2.4219 0.55078h-23.504c-1.875 0-3.3984 1.5234-3.3984 3.4023 0 1.875 1.5234 3.3984 3.3984 3.3984h21.238c1.2422 0 2.4336-0.49219 3.3125-1.3711 0.87891-0.88281 1.375-2.0742 1.375-3.3164zm21.047-0.8125h2.7969v7.7812h-2.7969v-7.7812zm-65.344-6c-1.332-2.3125-0.54297-5.2656 1.7656-6.5938l0.125-0.074219c2.0312-1.1719 4.4414-1.4883 6.7031-0.88281 2.2617 0.60547 4.1914 2.0859 5.3594 4.1133h0.003907c1.1719 2.0312 1.4883 4.4414 0.88281 6.7031-0.60547 2.2656-2.0898 4.1914-4.1172 5.3633l-0.125 0.074218c-2.3086 1.332-5.2578 0.54297-6.5938-1.7656zm17.805 4.2656c0.1875-0.015624 0.375-0.027343 0.56641-0.027343h23.504c1.3359 0 2.4219-1.082 2.4219-2.4219v-22.246c0-0.33594-0.13672-0.66016-0.375-0.89844-0.23828-0.23828-0.5625-0.375-0.89844-0.375h-26.332c-0.45703 0-0.89453 0.18359-1.2148 0.50391-0.32031 0.32422-0.50391 0.76172-0.50391 1.2148v12.727c0.64844 0.67969 1.2148 1.4336 1.6914 2.2578 1.5859 2.75 2.0156 6.0156 1.1953 9.0781-0.015624 0.0625-0.035156 0.125-0.054687 0.1875zm55.555-2.9531v-10.105c0-0.41406-0.16797-0.8125-0.46094-1.1055s-0.69141-0.45703-1.1016-0.45703h-10.109c-0.41406 0-0.8125 0.16406-1.1055 0.45703s-0.45703 0.69141-0.45703 1.1055v10.105c0 0.41797 0.16406 0.8125 0.45703 1.1055 0.29297 0.29297 0.69141 0.45703 1.1055 0.45703h10.109c0.41016 0 0.80859-0.16406 1.1016-0.45703 0.29297-0.29297 0.46094-0.6875 0.46094-1.1055zm3.125-3.8906h8.1406c0.85937 0 1.5625-0.69922 1.5625-1.5625v-15.559c0-0.41406-0.16797-0.8125-0.45703-1.1016-0.29297-0.29297-0.69141-0.46094-1.1055-0.46094h-28.391c-0.41406 0-0.8125 0.16797-1.1055 0.46094-0.29297 0.28906-0.45703 0.6875-0.45703 1.1016v15.559c0 0.41797 0.16406 0.8125 0.45703 1.1094 0.29297 0.28906 0.69141 0.45312 1.1055 0.45312h0.76563v-6.2148c0-1.2422 0.49219-2.4375 1.375-3.3164 0.875-0.875 2.0664-1.3711 3.3125-1.3711h10.109c1.2383 0 2.4336 0.49609 3.3125 1.3711 0.87891 0.87891 1.375 2.0742 1.375 3.3164zm-9.2422-21.809c0.80078-1.9219 1.2422-4.0273 1.2422-6.2383 0-8.9531-7.2656-16.219-16.219-16.219-8.9531 0-16.219 7.2656-16.219 16.219 0 2.043 0.375 4 1.0664 5.7969h5.9102c1.1641 0 2.2852 0.46875 3.1094 1.2891 0.82031 0.82422 1.2891 1.9453 1.2891 3.1094v5.2891c1.3125 0.41016 2.6914 0.65625 4.125 0.71875v-5.2773c0-1.2422 0.49609-2.4336 1.375-3.3164 0.875-0.875 2.0703-1.3711 3.3125-1.3711z" fill-rule="evenodd"/>
	<path d="m30.82 22.922c-1.8047-1.1328-4.2148-0.91406-5.7852 0.65625-1.8633 1.8633-1.8633 4.8828 0 6.7422l4.6797 4.6797c0.60938 0.60938 1.5977 0.60938 2.207 0l4.6797-4.6758c0.89453-0.89844 1.3984-2.1094 1.3984-3.375s-0.50391-2.4766-1.3984-3.3711c0-0.003906 0-0.003906-0.003906-0.003906-1.5664-1.5703-3.9766-1.7852-5.7773-0.65234zm-0.03125 3.6016 0.03125 0.003906 0.03125-0.003906c0.14453-0.019532 0.76172-0.14063 1.3594-0.73828 0.60156-0.60547 1.5781-0.60547 2.1797 0 0.30859 0.30859 0.48438 0.72656 0.48438 1.1641s-0.17578 0.85547-0.48438 1.1641c0 0-3.5703 3.5742-3.5703 3.5742l-3.5781-3.5742c-0.64063-0.64453-0.64063-1.6836 0-2.3242l0.003906-0.003906c0.60156-0.60156 1.582-0.60156 2.1836 0 0.59766 0.59766 1.2109 0.71875 1.3594 0.73828z" fill-rule="evenodd"/>
	<path d="m15.273 19.391c-1.8047-1.1328-4.2148-0.91016-5.7852 0.65625v0.003906c-1.8633 1.8633-1.8633 4.8789 0 6.7422 2.0273 2.0273 4.6797 4.6797 4.6797 4.6797 0.60938 0.60938 1.5977 0.60938 2.207 0l4.6797-4.6797c0.89453-0.89453 1.3984-2.1055 1.3984-3.3711s-0.50391-2.4766-1.3984-3.375h-0.003907c-1.5664-1.5703-3.9766-1.7891-5.7773-0.65625zm-0.03125 3.6055 0.03125 0.003906 0.03125-0.003906c0.14453-0.019532 0.76172-0.14453 1.3594-0.74219 0.60156-0.60156 1.5781-0.60156 2.1797 0v0.003906c0.30859 0.30859 0.48438 0.72656 0.48438 1.1641s-0.17578 0.85547-0.48438 1.1641c0 0-3.5703 3.5742-3.5703 3.5742l-3.5781-3.5781c-0.64062-0.64062-0.64062-1.6797 0-2.3242h0.003907c0.60156-0.60547 1.582-0.60547 2.1836 0 0.59766 0.59766 1.2109 0.71875 1.3594 0.73828z" fill-rule="evenodd"/>
</svg>