<svg xmlns="http://www.w3.org/2000/svg" version="1.1" viewBox="-5.0 -10.0 110.0 135.0">
	<path d="m15.355 71.66c5.2422-3.5547 11.953-8.4844 18.445-5.7109 2.1719 0.97656 4.0312 2.9375 6.0703 4.2734 5.0703 3.4648 11.5 3.293 17.336 3.5195 1.75 0.054687 2.7891 0.18359 4.2656 0.26562 1.3438 0.070313 2.5 0.13281 3.3164 0.82031 0.92969 0.86719 1.5781 2.1289 0.9375 3.4297-0.58203 0.98438-2.0156 1.3945-3.1953 1.6406-8.7109 2.1484-17.086-2.3672-25.84-0.78125-1.5 0.3125-1.0859 2.5664 0.4375 2.3047 3.7305-0.71094 7.5-0.10938 11.484 0.53125 4.625 0.92969 19.746 2.5781 19.695-4.7344 2.6797-2.3281 10.719-7.5586 11.984-7.3477 1.375-0.17188 2.7578 0.125 3.7109 0.79688 0.14062 0.10547 0.125 0.23438 0.039063 0.33594-4.9492 4.9062-10.117 9.7422-15.363 14.375-0.67188 0.59375-1.3672 1.2031-2.1367 1.5156-0.95703 0.38672-2.125 0.34375-3.2578 0.30078-8.793-0.48828-17.688-0.1875-26.406-1.6094-2.5469-0.46875-5.0312-1.1484-6.9141-1.6914-1.0508-0.30469-2.4922-0.71875-3.8828-0.22656-1.9688 0.6875-8.1641 7.5-9.8125 8.8203-0.46875 0.44531-0.48438 1.1875-0.039062 1.6562 0.44531 0.46875 1.1875 0.48438 1.6562 0.039063 0.94141-0.8125 8.0391-7.9844 8.9727-8.3047 0.68359-0.24219 1.625 0.03125 2.4531 0.26953 1.9336 0.55469 4.4922 1.2578 7.1406 1.7461 8.8906 1.457 17.805 1.1523 26.742 1.6484 1.3125 0.046875 2.8047 0.10156 4.2227-0.46875 1.1406-0.46094 2.0625-1.2734 2.8086-1.9297 5.2812-4.6641 10.48-9.5312 15.461-14.465 2.9531-3.7188-3.1602-5.8906-6.2422-5.0156 0.97266-0.99219 1.9297-1.9844 2.8984-2.9766 0.49609-0.50781 1.5312-1.5703 1.3047-2.9805-0.17188-1.0508-0.98438-1.8906-2.2891-2.3594-2.8984-1.1602-6.9727-0.007812-9.7305 2.0703 0.5625-0.67188 1.125-1.3516 1.6953-2.0469 0.12891-0.15625 0.47266-0.57031 0.4375-1.1641-0.027344-0.61719-0.42578-1-0.5625-1.1289-2.1953-2.0938-5.8516-2.0234-8.6406-0.33594-3.2188-3.1719-7.8438-4.0586-11.973-2.2852-0.23438-0.21094-0.46484-0.40625-0.69531-0.59375 0.42188-1.9375 3.4375-7.4922 4.8867-7.7969 1.0312 0.13281 1.7422 0.60547 2.8086 1.3164 7.2461 5.1016 12.188 3.4766 17.336-3.207 3.8828-5.3047 8-3.3125 8.6367-4.9062 1.0391-1.3555-7.6016-8.8125-17.09-7.7188-9.6758 1.1719-13.605 9.8828-13.766 10.254-0.49219 1.0391 0.82031 2.125 1.7461 1.4297 4.1484-2.9141 8.5547-4.0391 13.48-3.4375 0.64453 0.078125 1.2266-0.37891 1.3047-1.0234 0.078125-0.64063-0.37891-1.2266-1.0234-1.3047-3.8125-0.46484-7.3516-0.007812-10.703 1.3906 6.0547-7.2188 16.391-5.8672 22.328-0.8125-2.1133 0.41016-5.0938 2.293-6.7148 4.6328-4.5312 5.8906-8.1094 7.0781-14.234 2.7578-1.1562-0.76953-2.2422-1.4961-3.8359-1.6953-2.875-0.45313-6.207 5.8281-7.168 8.7266-0.20312-0.11719-0.40234-0.22266-0.60547-0.32812-1.0195-7.0859 2.2188-11.758 1.5508-18.625 17.781-1.8789 16.836-27.445-1.0703-28-17.719 0.37891-18.812 26.016-1.2969 27.977 0.29687 2.2969 0.015624 4.4219-0.39844 6.5781-0.96094-1.5586-2.5078-3.4219-4.75-4.3594-4.1719-1.7422-8.9375 0.48047-9.1328 0.57812-0.53906 0.25781-0.79688 0.87891-0.60156 1.4414 1.6562 4.5469 6.0742 9.4258 13.586 6.9219-0.34375 2.0312-0.55078 4.1875-0.34375 6.6211-3.2812-0.65625-6.3789 0.76172-9.2422 4.2422-4.9922-0.97656-9.1523 2.4062-9.9219 7.4766-5.0781 0.69531-9.4766 3.9766-13.613 6.7305-1.2695 0.86719-0.011719 2.7812 1.2891 1.957zm59.355-9.3945c2.1523-1.0977 5.1836-1.6172 6.6406-0.20312 0.015626 0.09375-0.054687 0.34375-0.66797 0.97266-2.6328 2.7031-5.3125 5.5117-8.0781 8.0625-0.03125-2.25-1.1719-3.9023-3.2422-4.8516 1.7305-1.4609 3.4375-3 5.3516-3.9766zm-7.4141-4.2188c1.375-0.42969 2.8047-0.29688 3.8086 0.33203-1.1406 1.3828-2.2578 2.7109-3.3359 3.9648-0.34766-1.3594-0.90625-2.6289-1.6562-3.7617 0.53906-0.25781 1.0312-0.48828 1.1875-0.53906zm-29.195-38.527c0.40234-15.398 22.953-15.395 23.352 0-0.52734 15.449-22.805 15.461-23.352 0zm2.4023 22.941c-2.1875-0.91797-3.5781-3.1484-4.2383-4.4766 4.6211-1.6133 8.3125-0.0625 10.398 4.3516-1.4062 0.46094-3.9727 1.043-6.1641 0.125zm-7.8086 16.191c3.1562-2.1484 5.3438 0.15234 6.293-1.1367 5.0391-6.2031 8.1953-4.0156 10.891-2.2773 1.6133 1.168 3.457 2.875 2.9531 5.0664-0.22266 1.5156 2.0391 1.8984 2.3125 0.375 0.26172-1.6094-0.03125-3.0703-0.85938-4.3672 6.4258-2.125 12.227 3.8281 11.531 10.328-0.054687 1.8633 2.7773 0.86719 4.0547 2.9453 0.48438 0.80078 0.52344 1.9531 0.10938 3.4297-0.76172 0.55078-1.5352 1.1289-2.3125 1.7266-1.1484-2.3906-3.793-3.0938-6.0703-3.082-1.9414-0.14062-4.1484-0.29688-6.2891-0.33594-5.3047-0.17578-10.582-0.29688-14.875-3.5742-3.082-2.4688-6.0586-5.0156-10.336-4.9453 0.41406-1.8398 1.2969-3.2656 2.6016-4.1562z"/>
	<path d="m49.82 28.703c1.2695-0.085937 1.1992-1.1719 1.1719-2.1367 4.8359-1.375 4.4883-7.2266-0.83594-8.2031-0.5625-0.12109-2.4062-0.61719-2.4062-1.9062 0-0.92188 1.0391-1.793 2.125-1.7812 2.6133-0.007812 1.9297 2.7109 3.8555 2.0625 2.1562-1.2578-1.2578-4.1562-2.75-4.2891 0.027343-0.96875 0.09375-2.0469-1.1719-2.1328-1.2891 0.085938-1.1953 1.2188-1.1719 2.1875-4.6719 1.4922-4.1602 7.2773 1.0156 8.1484 0.72656 0.16406 2.4219 0.67578 2.4219 1.9102 0 0.90625-1.0586 1.7891-2.125 1.7812-2.6211 0.007812-1.9141-2.7031-3.8477-2.0703-2.1172 1.2188 1.1016 4.0391 2.5469 4.25-0.023438 0.97656-0.11719 2.0938 1.1719 2.1797z"/>
</svg>