<svg xmlns="http://www.w3.org/2000/svg" version="1.1" viewBox="-5.0 -10.0 110.0 135.0">
	<path d="m15.625 50c0-0.86328-0.69922-1.5625-1.5625-1.5625h-12.5c-0.86328 0-1.5625 0.69922-1.5625 1.5625s0.69922 1.5625 1.5625 1.5625h12.5c0.86328 0 1.5625-0.69922 1.5625-1.5625z"/>
	<path d="m98.438 48.438h-12.5c-0.86328 0-1.5625 0.69922-1.5625 1.5625s0.69922 1.5625 1.5625 1.5625h12.5c0.86328 0 1.5625-0.69922 1.5625-1.5625s-0.69922-1.5625-1.5625-1.5625z"/>
	<path d="m18.094 66.617-10.828 6.25c-0.75 0.42969-1.0039 1.3867-0.57031 2.1328 0.28906 0.5 0.8125 0.78125 1.3555 0.78125 0.26562 0 0.53125-0.070312 0.78125-0.21094l10.828-6.25c0.75-0.42969 1.0039-1.3867 0.57031-2.1328-0.42969-0.74609-1.3867-1.0039-2.1328-0.57031z"/>
	<path d="m81.125 33.594c0.26562 0 0.53125-0.070312 0.78125-0.21094l10.828-6.25c0.75-0.42969 1.0039-1.3867 0.57031-2.1328-0.42969-0.75-1.3867-1.0039-2.1328-0.57031l-10.828 6.25c-0.75 0.42969-1.0039 1.3867-0.57031 2.1328 0.28906 0.5 0.8125 0.78125 1.3555 0.78125z"/>
	<path d="m67.188 20.23c0.24609 0.14062 0.51562 0.21094 0.78125 0.21094 0.53906 0 1.0625-0.28125 1.3555-0.78125l6.25-10.828c0.42969-0.75 0.17578-1.7031-0.57031-2.1328-0.75-0.42969-1.7031-0.17578-2.1328 0.57031l-6.25 10.828c-0.42969 0.75-0.17578 1.7031 0.57031 2.1328z"/>
	<path d="m50 15.625c0.86328 0 1.5625-0.69922 1.5625-1.5625v-12.5c0-0.86328-0.69922-1.5625-1.5625-1.5625s-1.5625 0.69922-1.5625 1.5625v12.5c0 0.86328 0.69922 1.5625 1.5625 1.5625z"/>
	<path d="m30.68 19.656c0.28906 0.5 0.8125 0.78125 1.3555 0.78125 0.26562 0 0.53125-0.070312 0.78125-0.21094 0.75-0.42969 1.0039-1.3867 0.57031-2.1328l-6.25-10.828c-0.42969-0.75-1.3867-1.0039-2.1328-0.57031-0.75 0.42969-1.0039 1.3867-0.57031 2.1328l6.25 10.828z"/>
	<path d="m92.727 72.867-10.828-6.25c-0.75-0.42969-1.7031-0.17578-2.1328 0.57031-0.42969 0.75-0.17578 1.7031 0.57031 2.1328l10.828 6.25c0.24609 0.14063 0.51563 0.21094 0.78125 0.21094 0.53906 0 1.0625-0.28125 1.3555-0.78125 0.42969-0.75 0.17578-1.7031-0.57031-2.1328z"/>
	<path d="m19.656 30.68-10.828-6.25c-0.75-0.42969-1.7031-0.17578-2.1328 0.57031-0.42969 0.75-0.17578 1.7031 0.57031 2.1328l10.828 6.25c0.24609 0.14063 0.51562 0.21094 0.78125 0.21094 0.53906 0 1.0625-0.28125 1.3555-0.78125 0.42969-0.75 0.17578-1.7031-0.57031-2.1328z"/>
	<path d="m60.824 39.426c-0.5625-2.875-3.0977-5.0508-6.1328-5.0508-1.8672 0-3.5391 0.82031-4.6875 2.125-1.1484-1.3008-2.8203-2.125-4.6875-2.125-3.0352 0-5.5742 2.1758-6.1328 5.0508-2.8086 0.94531-4.8047 3.6172-4.8047 6.668 0 1.4141 0.41406 2.7578 1.1836 3.9062-0.76953 1.1484-1.1836 2.4922-1.1836 3.9062 0 3.0469 1.9961 5.7266 4.8047 6.668 0.5625 2.875 3.0977 5.0508 6.1328 5.0508 1.8672 0 3.5391-0.82031 4.6875-2.125 1.1484 1.3008 2.8203 2.125 4.6875 2.125 3.0352 0 5.5742-2.1758 6.1328-5.0508 2.8086-0.94531 4.8047-3.6172 4.8047-6.668 0-1.4141-0.41406-2.7578-1.1836-3.9062 0.76953-1.1484 1.1836-2.4922 1.1836-3.9062 0-3.0469-1.9961-5.7266-4.8047-6.668zm-15.512 23.074c-1.7188 0-3.1172-1.3945-3.125-3.1094v-0.046875c0.015625-0.78906-0.5625-1.4609-1.3398-1.5703-1.9062-0.27344-3.3477-1.9336-3.3477-3.8672 0-1.0586 0.41406-2.0469 1.1719-2.7891 0.30078-0.29297 0.46875-0.69531 0.46875-1.1172s-0.17188-0.82031-0.46875-1.1172c-0.75781-0.74219-1.1719-1.7305-1.1719-2.7891 0-1.9297 1.4375-3.5938 3.3477-3.8672 0.78125-0.10937 1.3516-0.78125 1.3438-1.5703v-0.046875c0.007813-1.7148 1.4062-3.1133 3.125-3.1133s3.125 1.4023 3.125 3.125v18.75c0 1.7227-1.4023 3.125-3.125 3.125zm16.016-11.383c0.75781 0.74219 1.1719 1.7305 1.1719 2.7891 0 1.9297-1.4375 3.5938-3.3477 3.8672-0.78125 0.10937-1.3516 0.78125-1.3438 1.5703v0.046875c-0.007813 1.7148-1.4062 3.1133-3.125 3.1133s-3.125-1.4023-3.125-3.125v-18.75c0-1.7227 1.4023-3.125 3.125-3.125s3.1172 1.3945 3.125 3.1094v0.046875c-0.015625 0.78906 0.5625 1.4609 1.3398 1.5703 1.9062 0.27344 3.3477 1.9336 3.3477 3.8672 0 1.0586-0.41406 2.0469-1.1719 2.7891-0.30078 0.29297-0.46875 0.69531-0.46875 1.1172s0.17188 0.82031 0.46875 1.1172z"/>
	<path d="m50 21.875c-15.508 0-28.125 12.617-28.125 28.125 0 9.0156 4.3906 15.047 8.2656 20.375 3.1094 4.2734 5.7969 7.9648 5.7969 12.438v9.375c0 4.3086 3.5039 7.8125 7.8125 7.8125h12.5c4.3086 0 7.8125-3.5039 7.8125-7.8125v-9.375c0-4.4766 2.6875-8.1641 5.7969-12.438 3.875-5.3242 8.2656-11.359 8.2656-20.375 0-15.508-12.617-28.125-28.125-28.125zm10.938 62.5v3.125h-21.875v-3.125zm-4.6875 12.5h-12.5c-2.5859 0-4.6875-2.1016-4.6875-4.6875v-1.5625h21.875v1.5625c0 2.5859-2.1016 4.6875-4.6875 4.6875zm11.082-28.34c-2.9688 4.082-5.7891 7.957-6.3086 12.715h-22.047c-0.51953-4.7578-3.3398-8.6328-6.3086-12.715-3.7695-5.1797-7.668-10.535-7.668-18.535 0-13.785 11.215-25 25-25s25 11.215 25 25c0 8-3.8984 13.355-7.668 18.535z"/>
</svg>