<svg xmlns="http://www.w3.org/2000/svg" version="1.1" viewBox="-5.0 -10.0 110.0 135.0">
	<g>
		<path d="m29.758 87.719c2.2734 2.1406 4.0078 2.5781 7.0312 2.3984 8.9258-0.49219 17.844-0.1875 26.742-1.6445 2.6484-0.48828 5.207-1.1875 7.1406-1.7461 0.82812-0.24219 1.7695-0.51172 2.4531-0.26562 0.45312 0.16016 0.90625 0.58594 1.3359 1l7.6328 7.3008c1.125 1.0234 2.7188-0.5625 1.6172-1.6953l-7.6328-7.3008c-0.55469-0.53125-1.25-1.1953-2.1797-1.5195-1.3906-0.49219-2.832-0.078125-3.8828 0.22656-1.8828 0.54297-4.3672 1.2266-6.9141 1.6914-8.7031 1.418-17.617 1.1211-26.406 1.6094-1.1328 0.039062-2.3008 0.085937-3.2578-0.30469-0.76953-0.30859-1.4609-0.92188-2.1328-1.5117-5.2422-4.6328-10.414-9.4688-15.367-14.375-0.089844-0.10156-0.085938-0.22656 0.039062-0.33594 0.95313-0.67188 2.3359-0.96875 3.707-0.79688 0.42188 0.054687 2.1484 0.46094 6.5938 3.4141 1.7969 1.1953 3.6172 2.5352 5.3984 3.9336-0.0625 3.1094 2.8359 4.5469 5.3125 4.9766 4.8594 1.0938 9.6289 0.58594 14.387-0.24609 3.9883-0.64062 7.7578-1.2422 11.484-0.53125 0.63672 0.12109 1.25-0.29688 1.3711-0.92969 0.12109-0.63281-0.29688-1.25-0.92969-1.3711-4.1328-0.78906-8.2852-0.125-12.297 0.51563-4.5547 0.78125-8.9375 1.2969-13.539 0.26562-1.8125-0.34375-3.9219-1.1719-3.3672-3.2773 0.16797-0.67969 0.57422-1.332 1.1094-1.7891 0.82031-0.69141 1.9805-0.75 3.3203-0.82422 7.1016-0.73438 15.293 0.47656 21.602-3.7891 2.0312-1.3359 3.8984-3.2969 6.0703-4.2734 2.8555-1.3047 6.4453-0.88281 9.4688 0.36719 3.1953 1.3047 6.0859 3.4414 8.9727 5.3438 1.3047 0.80469 2.5664-1.043 1.2891-1.957-4.1328-2.75-8.5391-6.0312-13.613-6.7305-0.76562-5.0703-4.9297-8.4609-9.9219-7.4766-2.8594-3.4805-5.9609-4.8984-9.2422-4.2422 0.21094-2.4375 0-4.5898-0.34375-6.6211 7.7188 2.4531 11.797-2.2891 13.586-6.9219 0.19531-0.5625-0.0625-1.1875-0.60156-1.4414-3.8047-1.7031-10.117-2.5898-13.883 3.7852-0.41406-2.1562-0.69531-4.2812-0.39844-6.5781 3.3047-0.30469 6.3711-1.7539 8.7188-4.1484 8.6562-8.7656 2.3125-23.859-10.016-23.828-17.957 0.64453-18.848 26.031-1.0664 27.996-0.67188 6.8672 2.5703 11.539 1.5508 18.625-0.20312 0.10156-0.40234 0.21094-0.60547 0.32813-0.95312-2.8906-4.3008-9.1836-7.168-8.7266-1.5898 0.19922-2.6797 0.92578-3.8359 1.6953-1.0312 0.6875-2.2031 1.4688-4.0898 2.1719-5.2031 1.9609-8.1992-2.7188-11.207-6.1797-1.7422-1.9922-3.9531-2.9336-5.6562-3.3828 6.2852-5.1016 15.93-6.4648 22.328 0.8125-3.3516-1.3984-6.8906-1.8555-10.703-1.3906-0.64062 0.078124-1.1016 0.66406-1.0234 1.3047s0.66406 1.1016 1.3047 1.0234c4.9219-0.60156 9.3359 0.52344 13.48 3.4375 0.95312 0.67969 2.2266-0.35156 1.7461-1.4297-0.16406-0.37109-4.0898-9.0781-13.766-10.25-9.6016-1.1641-16.578 6.1484-16.867 6.457-0.31641 0.33594-0.40234 0.83203-0.22266 1.2578 0.17969 0.42969 0.59766 0.70703 1.0625 0.71484 0.039063 0 4.0234 0.10156 6.5508 2.9883 0.32812 0.375 0.66797 0.78125 1.0234 1.2109 5.3125 6.7461 9.9102 8.3125 17.336 3.207 1.0703-0.71094 1.7773-1.1836 2.8086-1.3164 0.29688 0.039063 1.2969 0.78125 2.5938 2.8516 0.97656 1.5625 1.8203 3.3906 2.2969 4.9414-0.23047 0.1875-0.46094 0.38672-0.69531 0.59375-4.125-1.7734-8.7578-0.89062-11.973 2.2852-0.68359-0.33984-1.625-0.78906-2.0195-0.91406-2.418-0.75781-5.0156-0.26562-6.625 1.2578-0.13281 0.125-0.53125 0.50781-0.55469 1.1094-0.035156 0.60938 0.30859 1.0234 0.42969 1.1719 0.57031 0.70312 1.1406 1.3828 1.6992 2.0547-2.8008-2.0938-6.7812-3.2266-9.7305-2.0703-3.0391 1.1367-2.7773 3.7031-0.98438 5.3398 0.96484 0.99219 1.9219 1.9844 2.8984 2.9766-2.3281-0.58203-6.7734 0.27734-6.9922 2.9922-0.0625 0.75391 0.21094 1.4922 0.74609 2.0195 4.9805 4.9375 10.184 9.8047 15.461 14.465zm27.812-49.273c2.1914-0.91797 4.7539-0.33594 6.1641 0.125-2.2109 4.4961-5.6562 5.9297-10.398 4.3516 0.66016-1.3281 2.0469-3.5625 4.2383-4.4766zm-19.027-18.344c0.64062-15.488 22.715-15.488 23.352 0 0 3.0742-1.1836 5.9766-3.3359 8.1719-7.2344 7.4414-20.039 2.2188-20.016-8.1719zm7.1719 36.797c-0.82812 1.2969-1.1211 2.7578-0.85938 4.3672 0.10156 0.64062 0.71875 1.0742 1.3438 0.96875 0.64062-0.10156 1.0703-0.70312 0.96875-1.3438-0.23047-1.4141 0.17188-2.5664 1.2578-3.6211 3.0938-2.8242 7.2812-5.9727 12.582 0.83203 0.28906 0.37891 0.78125 0.54297 1.2344 0.42188 3.707-1.0352 6.8867 1.1328 7.6562 4.875-5.1406 0.070312-7.3086 2.7891-11.07 5.4609-4.2031 2.8125-9.125 2.875-14.141 3.0625-1.6562 0.046875-3.7969 0.13281-5.2266 0.26953-2.8438 0.16016-5.5234 0.14062-7.1328 3.1523-0.77734-0.60156-1.5508-1.1797-2.3125-1.7266-0.82812-3.0547 0.12891-4.4961 3.2344-5.1602 0.57031-0.11719 0.96875-0.63672 0.93359-1.2188-0.625-6.6016 5-12.398 11.531-10.328zm-13.012 1.7344c0.15625 0.046876 0.64844 0.27344 1.1875 0.53906-0.75391 1.1328-1.3125 2.3984-1.6562 3.7617-1.0781-1.2539-2.1953-2.5781-3.3359-3.9648 1.0078-0.625 2.4336-0.76172 3.8086-0.33203zm-13.383 4.9883c-0.61719-0.63281-0.68359-0.88281-0.66797-0.97266 0.015625-0.10938 0.26562-0.34766 0.76953-0.52734 4.082-1.4062 8.1484 2.0078 11.219 4.7109-2.0742 0.94922-3.2148 2.6016-3.2422 4.8516-2.7578-2.5508-5.4414-5.3555-8.0781-8.0625z"/>
		<path d="m50.258 29.289c0.64844 0 1.1719-0.52344 1.1719-1.1719v-0.96094c1.9102-0.45312 3.4219-2.1328 3.4219-4 0-2.0312-1.5938-3.6016-4.2617-4.1992-0.5625-0.12109-2.4062-0.61719-2.4062-1.9062 0-0.91406 1.0234-1.7812 2.1016-1.7812 1.0078-0.03125 1.9258 0.54688 2.332 1.4688 0.67578 1.3984 2.7227 0.49219 2.1406-0.94531-0.625-1.418-1.8789-2.4141-3.3438-2.7422v-0.96094c0-0.64844-0.52734-1.1719-1.1719-1.1719-0.64844 0-1.1719 0.52344-1.1719 1.1719v1.0117c-1.8203 0.51563-3.2305 2.1406-3.2305 3.9531 0 2.0547 1.5938 3.625 4.25 4.1953 0.72656 0.16406 2.4219 0.67578 2.4219 1.9102 0 0.89844-1.0391 1.7773-2.1016 1.7812-1.0156 0.03125-1.9258-0.54688-2.3281-1.4648-0.66797-1.3984-2.7188-0.50781-2.1484 0.9375 0.59375 1.3594 1.7617 2.3359 3.1562 2.707v1.0078c0 0.64844 0.52734 1.1719 1.1719 1.1719z"/>
	</g>
</svg>