<svg xmlns="http://www.w3.org/2000/svg"
	xmlns:xlink="http://www.w3.org/1999/xlink" version="1.1" x="0px" y="0px" viewBox="-3.2 -6.4 70.4 86.4" enable-background="new 0 0 64 64" xml:space="preserve">
	<path d="M57,11h-2V9c0-1.6542969-1.3457031-3-3-3s-3,1.3457031-3,3v2h-4V9c0-1.6542969-1.3457031-3-3-3s-3,1.3457031-3,3v2h-4V9  c0-1.6542969-1.3457031-3-3-3s-3,1.3457031-3,3v2h-4V9c0-1.6542969-1.3457031-3-3-3s-3,1.3457031-3,3v2h-4V9  c0-1.6542969-1.3457031-3-3-3S9,7.3457031,9,9v2H7c-2.7568359,0-5,2.2431641-5,5v37c0,2.7568359,2.2431641,5,5,5h50  c2.7568359,0,5-2.2431641,5-5V16C62,13.2431641,59.7568359,11,57,11z M51,9c0-0.5517578,0.4482422-1,1-1s1,0.4482422,1,1v6  c0,0.5517578-0.4482422,1-1,1s-1-0.4482422-1-1V9z M41,9c0-0.5517578,0.4482422-1,1-1s1,0.4482422,1,1v6  c0,0.5517578-0.4482422,1-1,1s-1-0.4482422-1-1V9z M31,9c0-0.5517578,0.4482422-1,1-1s1,0.4482422,1,1v6  c0,0.5517578-0.4482422,1-1,1s-1-0.4482422-1-1V9z M21,9c0-0.5517578,0.4482422-1,1-1s1,0.4482422,1,1v6  c0,0.5517578-0.4482422,1-1,1s-1-0.4482422-1-1V9z M11,9c0-0.5517578,0.4482422-1,1-1s1,0.4482422,1,1v6  c0,0.5517578-0.4482422,1-1,1s-1-0.4482422-1-1V9z M7,13h2v2c0,1.6542969,1.3457031,3,3,3s3-1.3457031,3-3v-2h4v2  c0,1.6542969,1.3457031,3,3,3s3-1.3457031,3-3v-2h4v2c0,1.6542969,1.3457031,3,3,3s3-1.3457031,3-3v-2h4v2  c0,1.6542969,1.3457031,3,3,3s3-1.3457031,3-3v-2h4v2c0,1.6542969,1.3457031,3,3,3s3-1.3457031,3-3v-2h2  c1.6542969,0,3,1.3457031,3,3v6H4v-6C4,14.3457031,5.3457031,13,7,13z M57,56H7c-1.6542969,0-3-1.3457031-3-3V24h56v29  C60,54.6542969,58.6542969,56,57,56z M53,26h-6c-0.5527344,0-1,0.4472656-1,1v6c0,0.5527344,0.4472656,1,1,1h6  c0.5527344,0,1-0.4472656,1-1v-6C54,26.4472656,53.5527344,26,53,26z M52,32h-4v-4h4V32z M53,36h-6c-0.5527344,0-1,0.4472656-1,1v6  c0,0.5527344,0.4472656,1,1,1h6c0.5527344,0,1-0.4472656,1-1v-6C54,36.4472656,53.5527344,36,53,36z M52,42h-4v-4h4V42z M53,46h-6  c-0.5527344,0-1,0.4472656-1,1v6c0,0.5527344,0.4472656,1,1,1h6c0.5527344,0,1-0.4472656,1-1v-6C54,46.4472656,53.5527344,46,53,46z   M52,52h-4v-4h4V52z M41,26h-6c-0.5527344,0-1,0.4472656-1,1v6c0,0.5527344,0.4472656,1,1,1h6c0.5527344,0,1-0.4472656,1-1v-6  C42,26.4472656,41.5527344,26,41,26z M40,32h-4v-4h4V32z M41,36h-6c-0.5527344,0-1,0.4472656-1,1v6c0,0.5527344,0.4472656,1,1,1h6  c0.5527344,0,1-0.4472656,1-1v-6C42,36.4472656,41.5527344,36,41,36z M40,42h-4v-4h4V42z M29,26h-6c-0.5527344,0-1,0.4472656-1,1v6  c0,0.5527344,0.4472656,1,1,1h6c0.5527344,0,1-0.4472656,1-1v-6C30,26.4472656,29.5527344,26,29,26z M28,32h-4v-4h4V32z M29,36h-6  c-0.5527344,0-1,0.4472656-1,1v6c0,0.5527344,0.4472656,1,1,1h6c0.5527344,0,1-0.4472656,1-1v-6C30,36.4472656,29.5527344,36,29,36z   M28,42h-4v-4h4V42z M17,26h-6c-0.5527344,0-1,0.4472656-1,1v6c0,0.5527344,0.4472656,1,1,1h6c0.5527344,0,1-0.4472656,1-1v-6  C18,26.4472656,17.5527344,26,17,26z M16,32h-4v-4h4V32z M17,36h-6c-0.5527344,0-1,0.4472656-1,1v6c0,0.5527344,0.4472656,1,1,1h6  c0.5527344,0,1-0.4472656,1-1v-6C18,36.4472656,17.5527344,36,17,36z M16,42h-4v-4h4V42z M41,46h-6c-0.5527344,0-1,0.4472656-1,1v6  c0,0.5527344,0.4472656,1,1,1h6c0.5527344,0,1-0.4472656,1-1v-6C42,46.4472656,41.5527344,46,41,46z M40,52h-4v-4h4V52z M29,46h-6  c-0.5527344,0-1,0.4472656-1,1v6c0,0.5527344,0.4472656,1,1,1h6c0.5527344,0,1-0.4472656,1-1v-6C30,46.4472656,29.5527344,46,29,46z   M28,52h-4v-4h4V52z M17,46h-6c-0.5527344,0-1,0.4472656-1,1v6c0,0.5527344,0.4472656,1,1,1h6c0.5527344,0,1-0.4472656,1-1v-6  C18,46.4472656,17.5527344,46,17,46z M16,52h-4v-4h4V52z"/>
</svg>