<svg xmlns="http://www.w3.org/2000/svg" version="1.1" viewBox="-5.0 -10.0 110.0 135.0">
	<path d="m29.457 61.207-5.6641-3.2695v-0.003906c-0.34375-0.19531-0.76953-0.19531-1.1133 0l-5.6641 3.2695v0.003906c-0.34375 0.19531-0.55469 0.5625-0.55469 0.96094v6.543c0 0.39453 0.21094 0.76172 0.55469 0.96094l5.6641 3.2695c0.34375 0.19922 0.76953 0.19922 1.1133 0l5.6641-3.2695c0.34375-0.19922 0.55859-0.56641 0.55859-0.96094v-6.543c0-0.39844-0.21484-0.76562-0.55859-0.96094zm-1.668 6.8633-4.5508 2.6289-4.5547-2.6289v-5.2617l4.5547-2.6289 4.5547 2.6289zm62.148 5.1406c-1.3789-4.1484-1.3281-5.8789-1.3008-7.1445h0.003906c0.12891-1.5859-0.28516-3.168-1.1758-4.4883l-6.8555-11.887c-0.49219-0.86328-1.2266-1.5664-2.1094-2.0273 1.875-2.4531 2.8398-5.4805 2.7266-8.5625-0.011718-0.39062-0.23047-0.74609-0.57031-0.93359-0.34375-0.1875-0.75781-0.18359-1.0938 0.011719l-9.6172 5.5547-2.5742-1.4883-1.9805-3.4297-0.003906-2.9727 9.6172-5.5547h0.003906c0.33594-0.19141 0.54297-0.55078 0.55078-0.9375 0.007812-0.39062-0.1875-0.75391-0.51562-0.96094-4.9336-3.0938-11.305-2.6055-15.707 1.1992l-2.5664-0.35547v0.003906c-0.35938-1.3047-0.87891-2.5625-1.543-3.7383l2.5547-3.3711c0.33594-0.44531 0.29297-1.0664-0.10156-1.457l-3.8984-3.8984v-0.003907c-0.39062-0.39062-1.0156-0.43359-1.457-0.097656l-3.3711 2.5547c-1.1758-0.66406-2.4258-1.1836-3.7266-1.543l-0.57812-4.1836c-0.078126-0.55078-0.54688-0.96094-1.1016-0.96094h-5.5156c-0.55469 0.003907-1.0234 0.41016-1.0977 0.96094l-0.57812 4.1914c-1.3008 0.35938-2.5547 0.87891-3.7266 1.543l-3.3711-2.5547h-0.003906c-0.44141-0.33594-1.0625-0.29297-1.457 0.10156l-3.8984 3.8984c-0.39453 0.39453-0.4375 1.0156-0.10156 1.457l2.5547 3.3633c-0.66406 1.1758-1.1836 2.4258-1.543 3.7266l-4.1914 0.57813c-0.55078 0.078124-0.95703 0.54687-0.96094 1.1016v5.5156c0.003906 0.55469 0.41406 1.0234 0.96094 1.0977l4.1914 0.57812c0.35938 1.3008 0.87891 2.5547 1.543 3.7266l-2.5508 3.375c-0.33594 0.44141-0.29297 1.0664 0.097657 1.457l3.9023 3.9023c0.39062 0.39062 1.0156 0.43359 1.457 0.097656l3.3672-2.5547c1.1758 0.66406 2.4258 1.1836 3.7305 1.543l0.21094 1.5352-5.8125 3.3555h-0.003906c-5.0938-3.5117-11.941-3.0234-16.488 1.1758-4.5469 4.1953-5.5781 10.984-2.4844 16.344 3.0938 5.3594 9.4883 7.8594 15.398 6.0195 5.9062-1.8398 9.7539-7.5273 9.2578-13.695l12.246-7.0703 5.3555 9.2773-9.9453-1.3242c-2.8516-0.37891-5.1445 1-5.6992 3.4375v-0.003907c-0.57031 2.6445 0.95703 5.2891 3.5312 6.1172l18.066 5.5312c1.5938 0.47266 2.9336 1.5547 3.7305 3.0156l2.0508 3.5508v-0.003906c0.14453 0.25781 0.38672 0.44141 0.67188 0.51953s0.58984 0.035157 0.84375-0.10938l22.156-12.793c0.45703-0.26563 0.66406-0.8125 0.5-1.3125zm-27.449-43.152c2.9414-1.7031 6.5-1.9492 9.6445-0.67188l-8.4102 4.8516c-0.34375 0.19922-0.55469 0.56641-0.55859 0.96484v3.9102c0 0.19531 0.054688 0.39062 0.15234 0.55859l2.2773 3.9453v-0.003907c0.097656 0.17188 0.23438 0.3125 0.40625 0.41016l3.3867 1.957v-0.003907c0.34375 0.19922 0.76562 0.19922 1.1094 0l8.4102-4.8555c-0.3125 2.2461-1.3125 4.3359-2.8555 5.9922-0.73438 0.027344-1.4492 0.23438-2.0859 0.60156-0.78516 0.45312-1.4141 1.1328-1.8125 1.9453l-0.16406-0.28906h-0.003906c-1.293-2.375-4.2617-3.2539-6.6406-1.9727-0.78906 0.45703-1.4219 1.1367-1.8203 1.957-0.65625-1-1.6406-1.7383-2.7812-2.0898-2.1602-0.69922-4.5078 0.29688-5.5039 2.3398l-2.875-4.9805 4.1758-2.4102c0.39063-0.22656 0.60547-0.66797 0.54688-1.1133-0.49609-3.5312 0.75391-7.0859 3.3555-9.5273l0.015625-0.015625h0.003907c0.61719-0.57422 1.2969-1.0781 2.0273-1.5zm-24.035 18.543c-0.0625-0.46094-0.40234-0.83203-0.85547-0.93359-1.5781-0.35547-3.0859-0.98047-4.4531-1.8438-0.39062-0.24609-0.89453-0.22656-1.2617 0.054687l-3.1992 2.4219-2.5273-2.5273 2.4219-3.1992h-0.003906c0.28125-0.37109 0.30078-0.87109 0.054687-1.2656-0.86328-1.3672-1.4844-2.875-1.8438-4.4531-0.10156-0.44922-0.47266-0.79297-0.92969-0.85547l-3.9766-0.54688v-3.5742l3.9766-0.54688v-0.003906c0.46094-0.0625 0.83203-0.40234 0.93359-0.85156 0.35547-1.5781 0.98047-3.0859 1.8438-4.4531 0.24609-0.39063 0.22266-0.89453-0.054687-1.2656l-2.4219-3.1992 2.5273-2.5312 3.1992 2.4219v0.003906c0.36719 0.27734 0.87109 0.30078 1.2617 0.054687 1.3711-0.86328 2.8789-1.4844 4.457-1.8438 0.44922-0.10156 0.78906-0.47266 0.85156-0.92969l0.54688-3.9766h3.5781l0.54688 3.9766c0.0625 0.45703 0.40625 0.82812 0.85547 0.92969 1.5781 0.35938 3.0859 0.98047 4.4531 1.8438 0.39062 0.25 0.89453 0.22656 1.2656-0.054687l3.1992-2.4219 2.5312 2.5312-2.4297 3.1953c-0.28125 0.37109-0.30078 0.875-0.054688 1.2656 0.86328 1.3672 1.4883 2.875 1.8438 4.4531 0.10156 0.44922 0.47266 0.78906 0.93359 0.85156l1.7383 0.23828v0.003906c-1.9805 2.5938-2.9297 5.832-2.6602 9.082l-3.5469 2.0469-1.2344-2.1406h-0.003906c-0.39062-0.69141-0.90234-1.3086-1.5156-1.8164 2.3242-3.5352 1.9531-8.1953-0.90625-11.312-2.8555-3.1172-7.4648-3.8984-11.188-1.8906-3.7227 2.0078-5.6055 6.2891-4.5703 10.391 1.0352 4.0977 4.7227 6.9727 8.9531 6.9688h0.18359c0.078125 0.85937 0.34766 1.6914 0.78906 2.4336l1.2383 2.1367-4.3555 2.5156zm4.918-10.301c-0.92188 0.53906-1.6406 1.3633-2.0469 2.3516-0.17969 0.015625-0.35547 0.023437-0.53516 0.023437-3.2422 0-6.0586-2.2227-6.8164-5.3711-0.75781-3.1523 0.74219-6.4102 3.6289-7.8867 2.8867-1.4727 6.4062-0.77734 8.5156 1.6836 2.1055 2.4648 2.2539 6.0508 0.35156 8.6758-1.0625-0.20312-2.1602-0.019532-3.0977 0.52344zm-8.6719 24.52c-0.39062 0.22656-0.60547 0.66406-0.54297 1.1133 0.71875 5.2188-2.3555 10.215-7.3398 11.926-4.9805 1.707-10.477-0.34766-13.109-4.9102-2.6367-4.5625-1.6719-10.352 2.2969-13.812 3.9688-3.4609 9.8359-3.6289 13.996-0.39844 0.35547 0.27734 0.84766 0.3125 1.2383 0.085938l7.1016-4.1016h0.007812l5.7695-3.332 3.4609 5.9961zm32.441 22.016-1.4922-2.5898h-0.003907c-1.0742-1.9414-2.8711-3.3867-5-4.0273l-18.078-5.5273c-1.457-0.48828-2.3203-1.9844-2.0156-3.4922 0.31641-1.1602 1.4375-1.9141 2.6328-1.7734 0.20312 0 0.41016 0.011719 0.61328 0.042969l12.184 1.625v-0.003906c0.42188 0.058594 0.83594-0.12891 1.0703-0.48047 0.23438-0.35547 0.25-0.80859 0.039063-1.1758l-7.0391-12.195-4.5742-7.918-1.793-3.1016c-0.44531-0.625-0.61719-1.4102-0.46484-2.168 0.15234-0.75391 0.60938-1.4141 1.2656-1.8203 0.57422-0.34375 1.2734-0.41016 1.9023-0.17969 0.042969 0.023438 0.09375 0.042969 0.14062 0.058594 0.67578 0.34375 1.2266 0.89453 1.5703 1.5664l1.7891 3.1016 10.914 18.914 0.015625 0.027344c0.30469 0.53125 0.98438 0.71094 1.5156 0.40625 0.25781-0.14844 0.44141-0.39062 0.51953-0.67578 0.074219-0.28516 0.035157-0.58984-0.11328-0.84375l-0.046875-0.085938c-0.57031-0.98828-5.1484-8.9414-5.5078-9.5898-0.55859-1.1992-0.14453-2.6328 0.97266-3.3438 1.3203-0.67188 2.9297-0.15234 3.6094 1.1602l5.5117 9.5469c0.30859 0.53125 0.98828 0.71484 1.5195 0.40625 0.53125-0.30469 0.71484-0.98438 0.40625-1.5156l-0.015625-0.027344c-0.36719-0.63672-3.4258-5.9531-3.6992-6.4531-0.58203-1.207-0.16797-2.6602 0.96094-3.3789 1.3164-0.66797 2.9297-0.14844 3.6094 1.1641l3.4727 6.0117c0.30859 0.53125 0.98828 0.71484 1.5195 0.40625 0.53125-0.30469 0.71484-0.98438 0.40625-1.5156l-1.1797-2.0391v-0.003906c-0.79297-1.2422-0.4375-2.8984 0.80078-3.7031 0.40625-0.23047 0.86719-0.33594 1.332-0.30078 0.95312 0.074219 1.8047 0.62109 2.2734 1.457l6.8633 11.887v-0.003906c0.68359 0.96484 0.99219 2.1406 0.87891 3.3164-0.074219 2.3984 0.30859 4.7891 1.1289 7.043z"/>
</svg>